PathFileType	4	(X/Y/Z)	C:/Users/opensim2020/Desktop/walking_exp_matlab/subject03_walking12_straight_03.trc																																																																																																																																														
DataRate	CameraRate	NumFrames	NumMarkers	Units	OrigDataRate	OrigDataStartFrame	OrigNumFrames																																																																																																																																										
100	100	4	48	mm	100	1728	185																																																																																																																																										
Frame#	Time	LFHD			RFHD			LBHD			RBHD			C7			T10			CLAV			STRN			RBAK			LSHO			LUPA			LELB			LFRM			LWRA			LWRB			LFIN			RSHO			RUPA			RELB			RFRM			RWRA			RWRB			RFIN			LASI			RASI			LPSI			RPSI			LTHI			LKNE			LTIB			LANK			LHEE			LTOE			RTHI			RKNE			RTIB			RANK			RHEE			RTOE			*39			*40			*41			*42			*43			*44			*45			*46			*47		
		X1	Y1	Z1	X2	Y2	Z2	X3	Y3	Z3	X4	Y4	Z4	X5	Y5	Z5	X6	Y6	Z6	X7	Y7	Z7	X8	Y8	Z8	X9	Y9	Z9	X10	Y10	Z10	X11	Y11	Z11	X12	Y12	Z12	X13	Y13	Z13	X14	Y14	Z14	X15	Y15	Z15	X16	Y16	Z16	X17	Y17	Z17	X18	Y18	Z18	X19	Y19	Z19	X20	Y20	Z20	X21	Y21	Z21	X22	Y22	Z22	X23	Y23	Z23	X24	Y24	Z24	X25	Y25	Z25	X26	Y26	Z26	X27	Y27	Z27	X28	Y28	Z28	X29	Y29	Z29	X30	Y30	Z30	X31	Y31	Z31	X32	Y32	Z32	X33	Y33	Z33	X34	Y34	Z34	X35	Y35	Z35	X36	Y36	Z36	X37	Y37	Z37	X38	Y38	Z38	X39	Y39	Z39	X40	Y40	Z40	X41	Y41	Z41	X42	Y42	Z42	X43	Y43	Z43	X44	Y44	Z44	X45	Y45	Z45	X46	Y46	Z46	X47	Y47	Z47	X48	Y48	Z48
																																																																																																																																																	
70	0.69	-269.59763	1636.54541	-1031.53931	-293.79559	1627.5957	-900.53015	-382.88589	1567.66895	-1054.77844	-402.27005	1558.93298	-925.46368	-400.57159	1415.30164	-990.84906	-441.944	1108.03857	-987.06604	-276.57813	1342.39746	-995.43195	-235.49817	1174.71558	-1004.04193	-445.58115	1244.21057	-887.75879	-333.57867	1381.13293	-1148.86255	-362.66055	1185.32861	-1221.25146	-363.75626	1062.01257	-1233.90002	-336.57587	934.55243	-1235.64001	-311.07953	817.63434	-1207.08923	-340.54242	821.47675	-1254.04309	-317.3454	741.29578	-1248.46924	-314.09396	1367.02051	-834.3623	-294.69046	1147.64917	-759.48773	-269.46548	1037.55554	-746.44421	-237.10493	904.34467	-746.05902	-199.32295	812.73474	-785.12549	-225.08565	804.94415	-737.95062	-195.79187	736.10541	-751.03241	-290.07925	938.21942	-1110.03406	-281.49213	937.32526	-875.66791	-450.57816	962.62769	-1058.10352	-441.12823	976.50677	-908.76654	-270.20059	644.12817	-1159.94592	-201.55341	478.84338	-1131.46021	-289.73596	300.44055	-1121.15674	-364.57666	107.73422	-1072.72974	-413.02975	85.17743	-1031.38391	-236.30956	37.50939	-1057.17517	-360.43408	645.08124	-834.71613	-371.45993	467.30011	-873.15753	-439.67526	286.17276	-867.02618	-498.57645	76.95689	-914.15271	-547.51465	49.0295	-962.02301	-360.47662	31.88078	-931.48901	-371.30362	1674.07727	-993.07562	NaN	NaN	NaN	NaN	NaN	NaN	NaN	NaN	NaN	NaN	NaN	NaN	NaN	NaN	NaN	NaN	NaN	NaN	NaN	NaN	NaN	NaN	NaN	NaN
71	0.7	-256.10883	1635.21423	-1032.74133	-280.52908	1626.68787	-901.6452	-369.59604	1566.59387	-1055.97864	-389.07294	1558.08423	-926.62762	-387.59045	1414.18066	-991.8515	-429.09363	1106.89392	-987.34137	-263.64432	1341.17371	-996.12439	-222.64359	1173.46411	-1004.31213	-432.7048	1243.21021	-888.15601	-320.59375	1379.54468	-1149.77307	-351.37103	1183.73633	-1221.86279	-354.73389	1060.55933	-1234.74805	-332.03629	932.13013	-1237.52686	-310.83893	814.04016	-1210.16748	-340.51611	819.33026	-1256.73999	-320.36542	738.43896	-1252.25208	-301.39487	1366.13782	-835.10474	-280.17163	1147.42578	-759.23267	-253.27979	1037.83215	-745.69818	-217.43347	905.52911	-745.44043	-176.7238	815.26147	-784.55927	-202.79485	806.50885	-737.79077	-171.38087	738.67841	-750.72382	-276.65103	937.00604	-1109.93884	-269.4505	935.96643	-875.58429	-437.48492	961.19672	-1058.67651	-428.6767	975.52759	-909.25488	-253.24393	644.55255	-1161.03137	-183.85202	480.13251	-1131.49084	-261.1767	296.29053	-1122.53601	-323.88531	98.72248	-1075.19409	-371.10916	73.21904	-1034.64441	-191.23329	36.90886	-1058.11975	-351.82907	644.35559	-834.85675	-365.66522	466.67203	-873.10944	-436.6004	286.52194	-867.04828	-498.16537	78.05586	-914.19836	-546.89417	50.34211	-962.40552	-360.37024	31.80397	-931.37915	-357.9389	1672.95276	-994.33923	NaN	NaN	NaN	NaN	NaN	NaN	NaN	NaN	NaN	NaN	NaN	NaN	NaN	NaN	NaN	NaN	NaN	NaN	NaN	NaN	NaN	NaN	NaN	NaN
72	0.71	-242.59941	1633.74988	-1033.96484	-267.1915	1625.40698	-902.93158	-356.25888	1565.34509	-1057.17358	-375.92975	1557.10254	-927.84094	-374.55615	1412.95911	-992.90393	-416.1622	1105.63623	-987.84753	-250.7018	1339.77612	-996.8501	-209.74081	1172.12549	-1004.4989	-419.92374	1242.13928	-888.79028	-307.38116	1377.81116	-1150.73914	-339.80615	1181.99841	-1222.57446	-345.49716	1058.96387	-1235.78088	-327.2272	929.78778	-1239.37134	-310.47516	810.64069	-1213.16003	-340.26096	817.48456	-1259.62878	-323.27744	735.83527	-1255.80176	-288.7681	1365.14587	-835.88153	-265.8364	1147.02844	-759.00696	-237.3667	1038.01038	-744.99695	-198.04774	906.724	-744.87628	-154.33833	817.99902	-783.94244	-180.83817	808.05652	-737.66913	-147.14125	741.48981	-750.48853	-263.15036	935.70251	-1109.92664	-256.98532	934.46625	-875.40417	-424.42441	959.58142	-1059.40149	-416.45395	974.28711	-909.83679	-237.40823	644.36523	-1161.4364	-166.77115	480.72055	-1131.10229	-232.94995	292.42331	-1124.24731	-283.12659	91.0138	-1077.84558	-329.42282	62.79283	-1037.87695	-146.02008	37.87438	-1058.86646	-343.28345	643.62268	-834.97833	-359.65323	465.99158	-872.95801	-433.28125	286.86472	-867.10059	-497.54587	79.14767	-914.31995	-546.94843	52.1727	-962.54443	-360.20483	31.71927	-931.2265	-344.25882	1671.91296	-995.75958	NaN	NaN	NaN	NaN	NaN	NaN	NaN	NaN	NaN	NaN	NaN	NaN	NaN	NaN	NaN	NaN	NaN	NaN	NaN	NaN	NaN	NaN	NaN	NaN
73	0.72	-229.15242	1632.13269	-1035.25232	-253.72487	1624.3512	-904.20313	-342.9028	1563.88538	-1058.38086	-362.66263	1555.97729	-929.08508	-361.50293	1411.57434	-993.94037	-403.28415	1104.11499	-988.54254	-237.59406	1338.28821	-997.54211	-196.7271	1170.56482	-1004.6759	-407.17575	1240.96924	-889.65466	-294.07455	1375.86084	-1151.59778	-328.1091	1180.11255	-1223.18164	-335.8364	1057.26758	-1236.8363	-322.10419	927.47638	-1241.19897	-309.01044	808.17999	-1215.98706	-339.48428	815.8551	-1262.39648	-326.01382	733.48682	-1259.11682	-276.14014	1364.02014	-836.60608	-251.82306	1146.61121	-758.58588	-221.72617	1038.11902	-744.35156	-178.98126	907.98071	-744.29895	-132.34265	820.84723	-783.32159	-159.21228	809.77051	-737.60828	-123.1628	744.5473	-750.21527	-249.47571	934.25116	-1109.98462	-244.90147	932.78979	-875.10669	-411.25955	957.81885	-1060.30042	-404.12445	972.75354	-910.66608	-221.77034	643.85767	-1162.05505	-150.38344	480.82504	-1131.00659	-205.34792	289.09943	-1125.87708	-243.05531	85.17336	-1080.23584	-287.66946	53.89078	-1041.2644	-102.95066	38.51711	-1059.573	-334.49799	642.8125	-835.21246	-353.37918	465.37189	-872.54218	-429.62476	287.27252	-867.2688	-496.71481	80.33312	-914.62878	-546.53668	53.91854	-962.58911	-360.19498	31.57463	-931.37592	-330.8186	1670.80176	-997.26367	NaN	NaN	NaN	NaN	NaN	NaN	NaN	NaN	NaN	NaN	NaN	NaN	NaN	NaN	NaN	NaN	NaN	NaN	NaN	NaN	NaN	NaN	NaN	NaN
